<?xml version="1.0" encoding="UTF-8" standalone="no"?>
<!DOCTYPE svg PUBLIC "-//W3C//DTD SVG 1.1//EN" "http://www.w3.org/Graphics/SVG/1.1/DTD/svg11.dtd">
<svg width="100%" height="100%" viewBox="0 0 640 853" version="1.1" xmlns="http://www.w3.org/2000/svg" xmlns:xlink="http://www.w3.org/1999/xlink" xml:space="preserve" xmlns:serif="http://www.serif.com/" style="fill-rule:evenodd;clip-rule:evenodd;stroke-linejoin:round;stroke-miterlimit:2;">
    <g transform="matrix(1,0,0,1,-16674.6,-10181)">
        <g transform="matrix(6.89939,0,0,6.89939,17263,10745.9)">
            <path d="M0,-81.88C11.532,-66.088 -9.649,-44.483 -9.649,-44.483L-21.652,-44.717L-24.478,-33.655L-34.361,-25.653L-40.951,-28.007L-45.188,-37.421L-57.191,-36.009L-56.485,-20.763C-72.489,-19.638 -79.314,0 -79.314,0C-80.962,-21.889 -60.486,-43.776 -60.486,-43.776C-60.486,-43.776 -48.013,-44.483 -43.776,-44.717C-39.54,-44.953 -28.008,-37.186 -28.008,-37.186L-22.83,-51.543L-11.063,-51.543C-9.885,-59.074 -11.063,-64.957 -11.063,-64.957C4.001,-66.84 0,-81.88 0,-81.88ZM-56.015,-17.416C-53.214,-16.584 -53.19,-12.709 -53.19,-12.709C-52.955,-8.002 -60.016,-9.885 -60.016,-9.885C-63.782,-11.062 -61.428,-17.416 -61.428,-17.416C-59.075,-19.299 -56.015,-17.416 -56.015,-17.416ZM-8.709,-67.782C-11.063,-67.547 -16.475,-67.782 -13.651,-74.371C-13.651,-74.371 -10.729,-79.72 -6.555,-74.371C-2.38,-69.023 -8.709,-67.782 -8.709,-67.782ZM-41.187,-24.477L-35.356,-22.123C-35.356,-22.123 -11.061,-42.128 -3.765,-39.775C-3.765,-39.775 -1.883,-40.247 -2.119,-34.832C-2.353,-29.419 -3.49,-10.356 -2.098,-8.002C-2.098,-8.002 -19.77,-3.285 -29.89,18.597C-29.89,18.597 -32.949,24.241 -31.774,17.416C-30.597,10.59 -15.811,-20.948 -9.789,-30.361C-9.789,-30.361 -27.537,-12.945 -32.95,-11.062C-32.95,-11.062 -37.658,-10.585 -41.187,-13.883C-44.717,-17.181 -41.187,-24.477 -41.187,-24.477ZM-27.302,-12.062C-37.893,14.533 -56.293,22.535 -56.293,22.535C-66.927,7.708 -85.284,17.4 -85.284,17.4C-67.248,-2.091 -45.424,4.413 -45.424,4.413L-41.894,-12.062C-33.656,-5.237 -27.302,-12.062 -27.302,-12.062ZM-9.789,-1.177C-9.789,-1.177 2.588,-8.002 5.649,-9.514C8.707,-11.024 6.792,-7.767 6.792,-7.767C6.792,-7.767 -3.766,3.059 -6.136,6.236C-8.506,9.414 -9.789,6.236 -9.789,6.236L-9.789,-1.177ZM-25.121,-50.967L-28.873,-39.967C-28.873,-39.967 -37.55,-45.231 -42.756,-46.52C-42.756,-46.52 -43.371,-46.862 -46.344,-46.461L-42.224,-51.419C-42.224,-51.419 -55.993,-50.242 -61.621,-55.42C-61.621,-55.42 -44.289,-54.243 -34.822,-61.539C-34.822,-61.539 -26.533,-60.598 -25.121,-58.715L-26.769,-57.303L-25.121,-50.967ZM-57.981,24.119C-58.576,25.012 -61.549,31.556 -62.516,34.975C-63.483,38.396 -61.847,40.477 -63.483,41.519C-65.12,42.56 -67.052,35.868 -67.052,35.868L-65.417,21.294C-59.17,19.807 -57.981,24.119 -57.981,24.119Z"/>
        </g>
    </g>
</svg>
