<?xml version="1.0" encoding="UTF-8" standalone="no"?>
<!DOCTYPE svg PUBLIC "-//W3C//DTD SVG 1.1//EN" "http://www.w3.org/Graphics/SVG/1.1/DTD/svg11.dtd">
<svg width="100%" height="100%" viewBox="0 0 102 627" version="1.1" xmlns="http://www.w3.org/2000/svg" xmlns:xlink="http://www.w3.org/1999/xlink" xml:space="preserve" xmlns:serif="http://www.serif.com/" style="fill-rule:evenodd;clip-rule:evenodd;stroke-linejoin:round;stroke-miterlimit:2;">
    <g transform="matrix(1,0,0,1,-14994.8,-10244.3)">
        <g transform="matrix(4.16667,0,0,4.16667,15029.3,10250.5)">
            <path d="M-3.5,38.348C-3.666,38.225 -3.807,38.066 -3.912,37.88C-8.218,30.216 -8.908,23.618 -7.82,18.146C-5.281,5.372 7.142,-1.322 7.142,-1.322C7.768,-1.658 8.544,-1.508 9.001,-0.963C9.458,-0.418 9.469,0.373 9.028,0.93C7.985,2.249 7.714,3.38 7.839,4.288C8.004,5.482 8.795,6.215 8.831,6.247C16.124,12.437 16.88,20.407 15.777,26.843C14.698,33.137 11.828,37.916 11.828,37.916C11.74,38.063 11.628,38.192 11.5,38.298L11.5,50.432C11.5,50.584 11.478,50.73 11.436,50.868C11.482,51.07 11.504,51.278 11.499,51.488L9.5,141.457L9.5,141.461C9.499,142.881 9.41,144.184 9.1,145.223C8.776,146.305 8.227,147.172 7.449,147.809C6.637,148.473 5.543,148.932 4,148.932C2.457,148.932 1.363,148.473 0.551,147.809C-0.228,147.172 -0.777,146.305 -1.1,145.223C-1.411,144.183 -1.499,142.881 -1.5,141.461L-3.499,51.488C-3.504,51.277 -3.482,51.069 -3.436,50.868C-3.477,50.73 -3.5,50.584 -3.5,50.432L-3.5,38.348ZM9.654,35.645C10.42,34.18 12.08,30.65 12.82,26.336C13.573,21.945 13.364,16.713 10.135,12.074L8.854,14.145L4.248,10.895L0,14.145L-1.882,11.286C-3.22,13.431 -4.318,15.915 -4.877,18.731C-5.816,23.454 -5.207,29.1 -1.715,35.645L9.654,35.645ZM8.5,48.932L8.5,38.645L-0.5,38.645L-0.5,48.932L8.5,48.932ZM3.743,143.91C3.817,143.92 3.922,143.932 4,143.932C4.078,143.932 4.183,143.92 4.257,143.91C4.299,143.78 4.376,143.529 4.402,143.354C4.49,142.778 4.5,142.125 4.5,141.432L4.501,141.377L6.444,53.932L1.556,53.932L3.499,141.377L3.5,141.432C3.5,142.125 3.51,142.779 3.598,143.354C3.624,143.529 3.701,143.78 3.743,143.91Z"/>
        </g>
    </g>
</svg>
