<?xml version="1.0" encoding="UTF-8" standalone="no"?>
<!DOCTYPE svg PUBLIC "-//W3C//DTD SVG 1.1//EN" "http://www.w3.org/Graphics/SVG/1.1/DTD/svg11.dtd">
<svg width="100%" height="100%" viewBox="0 0 560 804" version="1.1" xmlns="http://www.w3.org/2000/svg" xmlns:xlink="http://www.w3.org/1999/xlink" xml:space="preserve" xmlns:serif="http://www.serif.com/" style="fill-rule:evenodd;clip-rule:evenodd;stroke-linejoin:round;stroke-miterlimit:2;">
    <g transform="matrix(1,0,0,1,-15399.9,-10229.1)">
        <g transform="matrix(4.16667,0,0,4.16667,15939.9,11013.1)">
            <path d="M-129.606,-172.652C-129.607,-172.694 -129.607,-172.737 -129.607,-172.779L-129.607,-179.14C-129.607,-184.037 -125.622,-188.021 -120.725,-188.021L2.3,-188.155L2.301,-188.155L2.301,-188.155L4.605,-188.157L4.605,4.61L-120.725,4.61C-125.622,4.61 -129.606,0.626 -129.606,-4.272L-129.606,-172.652ZM-125.001,-164.996L-125.001,-4.272C-125.001,-1.914 -123.082,0.004 -120.725,0.004L0,0.004L0,-163.897L-120.725,-163.897C-122.274,-163.897 -123.732,-164.296 -125.001,-164.996ZM0,-168.502L0,-183.546L-2.816,-183.542L-2.942,-168.502L0,-168.502ZM-7.421,-183.539L-120.722,-183.416C-122.499,-183.416 -124.026,-182.328 -124.672,-180.785L-7.444,-180.785L-7.421,-183.539ZM-125.001,-177.495L-125.001,-174.864L-7.493,-174.864L-7.471,-177.495L-125.001,-177.495ZM-124.828,-171.574C-124.306,-169.801 -122.664,-168.502 -120.725,-168.502L-7.546,-168.502L-7.52,-171.574L-124.828,-171.574ZM-112.83,-4.6C-113.738,-4.6 -114.475,-5.336 -114.475,-6.246L-114.475,-159.536C-114.475,-160.445 -113.738,-161.181 -112.83,-161.181C-111.921,-161.181 -111.184,-160.445 -111.184,-159.536L-111.184,-6.246C-111.184,-5.336 -111.921,-4.6 -112.83,-4.6Z"/>
        </g>
    </g>
</svg>
