<?xml version="1.0" encoding="UTF-8" standalone="no"?>
<!DOCTYPE svg PUBLIC "-//W3C//DTD SVG 1.1//EN" "http://www.w3.org/Graphics/SVG/1.1/DTD/svg11.dtd">
<svg width="100%" height="100%" viewBox="0 0 375 801" version="1.1" xmlns="http://www.w3.org/2000/svg" xmlns:xlink="http://www.w3.org/1999/xlink" xml:space="preserve" xmlns:serif="http://www.serif.com/" style="fill-rule:evenodd;clip-rule:evenodd;stroke-linejoin:round;stroke-miterlimit:2;">
    <g transform="matrix(1,0,0,1,-16219,-10205.9)">
        <g transform="matrix(4.31762,0,0,4.36992,16550,10307.7)">
            <path d="M-33.089,1.068L-25.441,-21.427C-25.061,-22.542 -24.009,-23.29 -22.819,-23.29C-22.52,-23.29 -22.222,-23.242 -21.936,-23.148L8.281,-13.118C9.022,-12.873 9.597,-12.332 9.859,-11.636C10.065,-11.089 10.171,-10.212 9.553,-9.093L-41.113,140.744C-41.211,141.034 -41.395,141.288 -41.642,141.474L-65.945,159.692C-66.216,159.895 -66.543,160.001 -66.874,160.001C-67.039,160.001 -67.204,159.975 -67.365,159.922C-67.847,159.762 -68.219,159.376 -68.356,158.891L-76.599,129.871C-76.682,129.577 -76.674,129.266 -76.575,128.976L-40.521,22.928C-40.509,22.872 -40.493,22.816 -40.474,22.76C-40.456,22.705 -40.434,22.651 -40.409,22.599L-33.184,1.349C-33.173,1.303 -33.16,1.257 -33.145,1.211C-33.128,1.162 -33.11,1.115 -33.089,1.068ZM-38.027,25.142L-73.123,128.371C-69.907,128.762 -66.737,126.88 -65.665,123.731L-65.663,123.725L-32.743,26.895L-38.027,25.142ZM-72.956,131.44L-68.932,145.61L-57.372,149.447L-45.504,140.551C-47.664,139.152 -49.167,136.992 -49.763,134.573C-50.34,135.039 -50.975,135.444 -51.659,135.78C-53.07,136.473 -54.594,136.824 -56.125,136.824C-57.203,136.824 -58.284,136.651 -59.335,136.302C-62.73,135.175 -65.117,132.42 -65.905,129.211C-67.687,130.649 -69.942,131.463 -72.282,131.463C-72.506,131.463 -72.731,131.455 -72.956,131.44ZM-43.498,138.202L-8.574,34.917L-13.685,33.22L-46.647,130.173C-47.64,133.289 -46.265,136.614 -43.498,138.202ZM-7.619,32.095L-1.326,13.482L-30.707,3.612L-37.068,22.322L-7.619,32.095ZM-0.365,10.64L6.681,-10.197C6.706,-10.271 6.737,-10.342 6.772,-10.411L-22.623,-20.167L-29.741,0.772L-0.365,10.64ZM-16.603,32.252L-29.825,27.864L-62.745,124.693C-63.97,128.295 -62,132.209 -58.355,133.42C-56.589,134.006 -54.698,133.877 -53.028,133.057C-51.36,132.238 -50.117,130.826 -49.523,129.081C-49.523,129.081 -16.603,32.252 -16.603,32.252ZM-10.53,27.291C-10.692,27.291 -10.857,27.266 -11.021,27.212L-31.194,20.516C-32,20.249 -32.434,19.386 -32.163,18.591C-31.891,17.795 -31.021,17.364 -30.214,17.634L-10.04,24.329C-9.234,24.596 -8.801,25.458 -9.071,26.255C-9.288,26.889 -9.887,27.291 -10.53,27.291ZM-8.989,22.759C-9.151,22.759 -9.317,22.735 -9.48,22.68L-29.653,15.984C-30.459,15.717 -30.893,14.855 -30.622,14.059C-30.35,13.264 -29.479,12.832 -28.674,13.102L-8.499,19.797C-7.694,20.065 -7.26,20.926 -7.531,21.723C-7.747,22.358 -8.346,22.759 -8.989,22.759ZM-7.448,18.225C-7.611,18.225 -7.776,18.201 -7.939,18.146L-28.112,11.45C-28.918,11.184 -29.352,10.321 -29.081,9.525C-28.809,8.73 -27.938,8.301 -27.133,8.568L-6.958,15.264C-6.153,15.531 -5.719,16.393 -5.99,17.189C-6.206,17.824 -6.805,18.225 -7.448,18.225Z"/>
        </g>
    </g>
</svg>
