<?xml version="1.0" encoding="UTF-8" standalone="no"?>
<!DOCTYPE svg PUBLIC "-//W3C//DTD SVG 1.1//EN" "http://www.w3.org/Graphics/SVG/1.1/DTD/svg11.dtd">
<svg width="100%" height="100%" viewBox="0 0 261 521" version="1.1" xmlns="http://www.w3.org/2000/svg" xmlns:xlink="http://www.w3.org/1999/xlink" xml:space="preserve" xmlns:serif="http://www.serif.com/" style="fill-rule:evenodd;clip-rule:evenodd;stroke-linejoin:round;stroke-miterlimit:2;">
    <g transform="matrix(1,0,0,1,-21491.7,-8473.21)">
        <g transform="matrix(4.16667,0,0,4.16667,21621.8,8958.78)">
            <path d="M31.231,2.769C31.231,5.913 28.681,8.462 25.539,8.462L-25.538,8.462C-28.68,8.462 -31.23,5.913 -31.23,2.769L-31.23,-110.846C-31.23,-113.989 -28.679,-116.538 -25.538,-116.538L25.539,-116.538C28.681,-116.538 31.231,-113.989 31.231,-110.845L31.231,2.769ZM26.231,2.77L26.231,-110.846C26.231,-111.228 25.922,-111.538 25.539,-111.538L-25.538,-111.538C-25.92,-111.538 -26.23,-111.228 -26.23,-110.846L-26.23,2.769C-26.23,3.152 -25.92,3.461 -25.538,3.461L25.539,3.461C25.921,3.461 26.231,3.152 26.231,2.77ZM0,-8.67C2.395,-8.67 4.336,-6.73 4.336,-4.335C4.336,-1.941 2.395,0 0,0C-2.394,0 -4.334,-1.941 -4.334,-4.335C-4.334,-6.73 -2.394,-8.67 0,-8.67ZM0,-5.67C-0.735,-5.67 -1.334,-5.071 -1.334,-4.335C-1.334,-3.599 -0.735,-3 0,-3C0.736,-3 1.336,-3.599 1.336,-4.335C1.336,-5.071 0.736,-5.67 0,-5.67ZM-22.431,-103.807L22.568,-103.807C23.397,-103.807 24.069,-103.135 24.068,-102.307L24.068,-12.248C24.069,-11.419 23.397,-10.748 22.568,-10.748L-22.431,-10.748C-23.26,-10.748 -23.932,-11.419 -23.932,-12.248L-23.932,-102.307C-23.931,-103.135 -23.26,-103.807 -22.431,-103.807ZM-20.932,-100.807L-20.931,-13.748L21.068,-13.748L21.068,-100.807L-20.932,-100.807ZM4.336,-107.299C4.336,-106.891 4.005,-106.559 3.597,-106.559L-3.594,-106.559C-4.003,-106.559 -4.334,-106.891 -4.334,-107.299C-4.334,-107.707 -4.003,-108.038 -3.594,-108.038L3.597,-108.038C4.005,-108.038 4.336,-107.707 4.336,-107.299Z"/>
        </g>
    </g>
</svg>
