<?xml version="1.0" encoding="UTF-8" standalone="no"?>
<!DOCTYPE svg PUBLIC "-//W3C//DTD SVG 1.1//EN" "http://www.w3.org/Graphics/SVG/1.1/DTD/svg11.dtd">
<svg width="100%" height="100%" viewBox="0 0 538 537" version="1.1" xmlns="http://www.w3.org/2000/svg" xmlns:xlink="http://www.w3.org/1999/xlink" xml:space="preserve" xmlns:serif="http://www.serif.com/" style="fill-rule:evenodd;clip-rule:evenodd;stroke-linejoin:round;stroke-miterlimit:2;">
    <g transform="matrix(1,0,0,1,-25455.6,-7924.26)">
        <g transform="matrix(-5.50352,-5.50352,5.50352,-5.50352,25549.2,7936.36)">
            <path d="M1.931,-13.087L3.582,-13.087C4.035,-13.087 4.402,-12.719 4.402,-12.266L4.402,-2.544C4.402,-2.09 4.035,-1.723 3.582,-1.723L1.979,-1.723C-0.078,1.643 -0.181,1.643 -0.689,1.643L-5.668,1.643C-6.194,1.643 -6.302,1.643 -8.169,-1.724L-9.076,-1.723L-9.076,-1.633C-9.076,-1.179 -9.444,-0.812 -9.897,-0.812L-19.655,-0.812C-19.69,-0.812 -19.724,-0.815 -19.757,-0.819C-19.792,-0.814 -19.827,-0.812 -19.863,-0.812C-20.318,-0.812 -20.685,-1.179 -20.685,-1.633L-20.685,-1.723L-35.969,-1.723C-36.422,-1.723 -36.789,-2.09 -36.789,-2.544L-36.789,-3.849L-37.957,-3.849C-38.088,-2.999 -38.293,-2.068 -38.621,-1.409L-38.621,-1.228C-38.621,-0.774 -38.988,-0.406 -39.443,-0.406L-40.465,-0.406C-40.918,-0.406 -41.285,-0.774 -41.285,-1.228L-41.285,-1.497C-41.592,-2.151 -41.785,-3.041 -41.906,-3.849L-42.207,-3.849L-42.273,-3.849C-42.404,-2.999 -42.609,-2.068 -42.937,-1.409L-42.937,-1.228C-42.937,-0.774 -43.304,-0.406 -43.759,-0.406L-44.783,-0.406C-45.234,-0.406 -45.603,-0.774 -45.603,-1.228L-45.603,-1.497C-45.908,-2.151 -46.101,-3.041 -46.222,-3.849L-46.592,-3.849C-46.72,-2.999 -46.927,-2.068 -47.254,-1.409L-47.254,-1.228C-47.254,-0.774 -47.623,-0.406 -48.076,-0.406L-49.099,-0.406C-49.552,-0.406 -49.92,-0.774 -49.92,-1.228L-49.92,-1.497C-50.224,-2.151 -50.42,-3.042 -50.541,-3.849L-50.857,-3.849L-50.908,-3.849C-51.035,-2.999 -51.242,-2.068 -51.572,-1.409L-51.572,-1.228C-51.572,-0.774 -51.939,-0.406 -52.394,-0.406L-53.416,-0.406C-53.869,-0.406 -54.236,-0.774 -54.236,-1.228L-54.236,-1.497C-54.541,-2.151 -54.736,-3.042 -54.857,-3.849L-55.224,-3.849C-55.353,-3.001 -55.56,-2.068 -55.888,-1.407L-55.888,-1.228C-55.888,-0.774 -56.256,-0.406 -56.709,-0.406L-57.732,-0.406C-58.185,-0.406 -58.552,-0.774 -58.552,-1.228L-58.552,-1.497C-58.859,-2.152 -59.05,-3.042 -59.175,-3.849L-62.326,-3.849C-62.455,-2.966 -62.664,-1.994 -63.002,-1.316L-63.002,-1.134C-63.002,-0.68 -63.371,-0.313 -63.824,-0.313L-64.847,-0.313C-65.299,-0.313 -65.668,-0.68 -65.668,-1.134L-65.668,-1.404C-65.707,-1.492 -65.748,-1.584 -65.787,-1.683L-67.947,-1.683C-68.734,-1.683 -69.375,-2.324 -69.375,-3.112L-69.375,-3.849L-70.924,-3.849L-70.924,-3.112C-70.924,-2.324 -71.566,-1.683 -72.353,-1.683L-72.597,-1.683C-72.636,-0.824 -73.347,-0.138 -74.217,-0.138L-76.021,-0.138C-76.123,0.152 -76.228,0.406 -76.343,0.625L-76.343,0.932C-76.343,1.387 -76.711,1.754 -77.164,1.754L-78.527,1.754C-78.98,1.754 -79.347,1.387 -79.347,0.932L-79.347,-15.555C-79.347,-16.008 -78.98,-16.375 -78.527,-16.375L-77.164,-16.375C-76.711,-16.375 -76.343,-16.008 -76.343,-15.555L-76.343,-15.247C-76.25,-15.067 -76.16,-14.862 -76.074,-14.634L-74.217,-14.634C-73.347,-14.634 -72.636,-13.947 -72.597,-13.087L-72.353,-13.087C-71.566,-13.087 -70.924,-12.446 -70.924,-11.658L-70.924,-10.961L-69.375,-10.961L-69.375,-11.697C-69.375,-12.485 -68.734,-13.126 -67.947,-13.126L-65.709,-13.126C-65.697,-13.158 -65.681,-13.188 -65.668,-13.218L-65.668,-13.49C-65.668,-13.942 -65.299,-14.312 -64.847,-14.312L-63.824,-14.312C-63.371,-14.312 -63.002,-13.942 -63.002,-13.49L-63.002,-13.308C-62.685,-12.671 -62.482,-11.777 -62.353,-10.961L-59.175,-10.961C-59.05,-11.767 -58.859,-12.659 -58.552,-13.312L-58.552,-13.584C-58.552,-14.035 -58.185,-14.405 -57.732,-14.405L-56.709,-14.405C-56.256,-14.405 -55.888,-14.035 -55.888,-13.584L-55.888,-13.402C-55.595,-12.812 -55.398,-12.003 -55.268,-11.231C-55.193,-11.253 -55.115,-11.265 -55.033,-11.265C-54.957,-11.265 -54.884,-11.254 -54.814,-11.235C-54.691,-11.965 -54.507,-12.732 -54.236,-13.312L-54.236,-13.584C-54.236,-14.035 -53.869,-14.405 -53.416,-14.405L-52.394,-14.405C-51.939,-14.405 -51.572,-14.035 -51.572,-13.584L-51.572,-13.402C-51.242,-12.742 -51.035,-11.81 -50.908,-10.961L-50.857,-10.961L-50.541,-10.961C-50.42,-11.769 -50.224,-12.659 -49.92,-13.312L-49.92,-13.584C-49.92,-14.035 -49.552,-14.405 -49.099,-14.405L-48.076,-14.405C-47.623,-14.405 -47.254,-14.035 -47.254,-13.584L-47.254,-13.402C-46.927,-12.744 -46.72,-11.81 -46.592,-10.961L-46.222,-10.961C-46.101,-11.769 -45.908,-12.659 -45.603,-13.312L-45.603,-13.584C-45.603,-14.035 -45.234,-14.405 -44.783,-14.405L-43.759,-14.405C-43.304,-14.405 -42.937,-14.035 -42.937,-13.584L-42.937,-13.402C-42.609,-12.744 -42.404,-11.81 -42.273,-10.961L-42.207,-10.961L-41.906,-10.961C-41.785,-11.769 -41.592,-12.659 -41.285,-13.312L-41.285,-13.584C-41.285,-14.035 -40.918,-14.405 -40.465,-14.405L-39.443,-14.405C-38.988,-14.405 -38.621,-14.035 -38.621,-13.584L-38.621,-13.402C-38.293,-12.744 -38.088,-11.81 -37.957,-10.961L-36.789,-10.961L-36.789,-11.628C-36.975,-11.779 -37.094,-12.009 -37.094,-12.266L-37.094,-13.964C-37.094,-14.752 -36.453,-15.393 -35.664,-15.393L-26.307,-15.393L-26.307,-15.941C-26.307,-16.729 -25.666,-17.37 -24.879,-17.37L-9.838,-17.37C-9.049,-17.37 -8.408,-16.729 -8.408,-15.941L-8.408,-13.087L-8.127,-13.087C-6.3,-16.376 -6.19,-16.376 -5.668,-16.376L-0.689,-16.376C-0.186,-16.376 -0.08,-16.376 1.931,-13.087ZM-1.068,-14.734L-5.265,-14.734C-5.482,-14.394 -5.847,-13.774 -6.238,-13.088L-0,-13.088C-0.435,-13.779 -0.838,-14.404 -1.068,-14.734ZM-0,-1.646L-6.238,-1.646C-5.848,-0.961 -5.482,-0.339 -5.266,-0L-1.068,-0C-0.838,-0.33 -0.436,-0.954 -0,-1.646ZM-54.215,-5.491L-54.136,-5.491C-53.718,-5.491 -53.369,-5.176 -53.322,-4.762C-53.22,-3.857 -53.062,-3.069 -52.883,-2.532C-52.744,-2.945 -52.57,-3.641 -52.443,-4.762C-52.4,-5.16 -52.075,-5.466 -51.679,-5.49L-51.679,-9.321C-52.075,-9.345 -52.4,-9.65 -52.443,-10.049C-52.57,-11.171 -52.744,-11.864 -52.883,-12.277C-53.062,-11.742 -53.22,-10.953 -53.322,-10.049C-53.369,-9.633 -53.718,-9.319 -54.136,-9.319L-54.215,-9.319L-54.215,-5.491ZM-35.147,-4.641L-35.147,-3.365L-20.685,-3.365L-20.685,-11.444L-35.147,-11.444L-35.147,-10.169C-35.146,-10.16 -35.146,-10.15 -35.146,-10.14L-35.146,-4.67C-35.146,-4.661 -35.146,-4.651 -35.147,-4.641ZM-55.855,-9.319L-55.947,-9.319C-56.363,-9.319 -56.715,-9.633 -56.759,-10.049C-56.888,-11.171 -57.06,-11.864 -57.201,-12.277C-57.381,-11.74 -57.537,-10.953 -57.638,-10.049C-57.685,-9.633 -58.035,-9.319 -58.453,-9.319L-62.532,-9.319L-62.532,-5.491L-58.453,-5.491C-58.035,-5.491 -57.685,-5.176 -57.638,-4.762C-57.537,-3.857 -57.381,-3.069 -57.201,-2.534C-57.06,-2.945 -56.888,-3.641 -56.759,-4.762C-56.715,-5.176 -56.363,-5.491 -55.947,-5.491L-55.855,-5.491L-55.855,-9.319ZM-10.051,-13.998L-10.051,-15.727L-24.664,-15.727L-24.664,-15.393L-20.625,-15.393C-19.85,-15.393 -19.213,-14.771 -19.197,-13.998L-10.051,-13.998ZM-69.072,-9.319L-71.746,-9.319C-72.199,-9.319 -72.566,-9.686 -72.566,-10.14L-72.566,-11.445L-73.416,-11.445C-73.869,-11.445 -74.238,-11.814 -74.238,-12.266L-74.217,-12.991L-76.67,-12.991C-77.035,-12.991 -77.357,-13.234 -77.459,-13.584C-77.547,-13.891 -77.633,-14.122 -77.707,-14.294L-77.707,-0.331C-77.621,-0.527 -77.523,-0.8 -77.422,-1.175C-77.324,-1.533 -77,-1.78 -76.629,-1.78L-74.238,-1.758L-74.238,-2.504C-74.238,-2.958 -73.869,-3.325 -73.416,-3.325L-72.566,-3.325L-72.566,-4.67C-72.566,-5.124 -72.199,-5.491 -71.746,-5.491L-69.072,-5.491L-69.072,-9.319ZM-24.664,-13.087L-20.838,-13.087L-20.838,-13.75L-24.664,-13.75L-24.664,-13.087ZM-45.868,-5.491L-45.504,-5.491C-45.086,-5.491 -44.734,-5.176 -44.689,-4.762C-44.586,-3.857 -44.429,-3.069 -44.25,-2.534C-44.109,-2.945 -43.937,-3.641 -43.812,-4.762C-43.767,-5.166 -43.432,-5.475 -43.027,-5.491L-43.027,-9.32C-43.432,-9.336 -43.767,-9.644 -43.812,-10.049C-43.937,-11.171 -44.109,-11.864 -44.25,-12.277C-44.429,-11.742 -44.586,-10.953 -44.689,-10.049C-44.734,-9.633 -45.086,-9.319 -45.504,-9.319L-45.868,-9.319L-45.868,-5.491ZM-26.307,-13.087L-26.307,-13.75L-35.452,-13.75L-35.452,-13.087L-26.307,-13.087ZM-41.385,-5.491L-41.187,-5.491C-40.769,-5.491 -40.418,-5.176 -40.371,-4.762C-40.269,-3.857 -40.113,-3.069 -39.933,-2.534C-39.793,-2.945 -39.621,-3.641 -39.494,-4.762C-39.447,-5.176 -39.095,-5.491 -38.677,-5.491L-36.789,-5.491L-36.789,-9.319L-38.677,-9.319C-39.095,-9.319 -39.447,-9.633 -39.494,-10.049C-39.621,-11.171 -39.793,-11.864 -39.933,-12.277C-40.113,-11.742 -40.269,-10.953 -40.371,-10.049C-40.418,-9.633 -40.769,-9.319 -41.187,-9.319L-41.385,-9.319L-41.385,-5.491ZM-19.043,-3.094C-18.912,-2.948 -18.832,-2.756 -18.832,-2.544L-18.832,-2.453L-10.719,-2.453L-10.719,-2.544C-10.719,-2.997 -10.35,-3.365 -9.897,-3.365L2.761,-3.365L2.761,-11.444L-9.897,-11.444C-9.907,-11.444 -9.918,-11.445 -9.928,-11.445L-10.201,-11.445C-10.654,-11.445 -11.021,-11.814 -11.021,-12.266L-11.021,-12.357L-18.832,-12.357L-18.832,-12.266C-18.832,-12.056 -18.912,-11.863 -19.043,-11.717L-19.043,-3.094ZM-7.641,-6.584C-8.096,-6.584 -8.463,-6.953 -8.463,-7.405C-8.463,-7.858 -8.096,-8.227 -7.641,-8.227L1.472,-8.228C1.925,-8.228 2.295,-7.858 2.295,-7.406C2.295,-6.953 1.925,-6.585 1.472,-6.584L-7.641,-6.584ZM-50.037,-5.491L-49.82,-5.491C-49.402,-5.491 -49.051,-5.176 -49.006,-4.762C-48.904,-3.857 -48.746,-3.069 -48.566,-2.532C-48.427,-2.945 -48.254,-3.641 -48.129,-4.762C-48.09,-5.109 -47.836,-5.386 -47.51,-5.467L-47.509,-9.343C-47.836,-9.424 -48.09,-9.701 -48.129,-10.049C-48.254,-11.171 -48.427,-11.864 -48.566,-12.277C-48.746,-11.742 -48.904,-10.953 -49.006,-10.049C-49.051,-9.633 -49.402,-9.319 -49.82,-9.319L-50.037,-9.319L-50.037,-5.491ZM-63.972,-10.679C-64.081,-11.387 -64.206,-11.867 -64.312,-12.182C-64.326,-12.144 -64.34,-12.103 -64.351,-12.062C-64.459,-11.718 -64.775,-11.484 -65.136,-11.484L-67.732,-11.484L-67.732,-10.777C-67.548,-10.626 -67.43,-10.397 -67.43,-10.14L-67.43,-4.67C-67.43,-4.413 -67.548,-4.184 -67.732,-4.033L-67.732,-3.325L-65.191,-3.325C-64.822,-3.325 -64.5,-3.08 -64.4,-2.726C-64.371,-2.619 -64.343,-2.526 -64.314,-2.443C-64.188,-2.824 -64.054,-3.375 -63.948,-4.105C-64.088,-4.252 -64.174,-4.451 -64.173,-4.67L-64.173,-10.14C-64.173,-10.346 -64.097,-10.535 -63.972,-10.679Z"/>
        </g>
    </g>
</svg>
