<?xml version="1.0" encoding="UTF-8" standalone="no"?>
<!DOCTYPE svg PUBLIC "-//W3C//DTD SVG 1.1//EN" "http://www.w3.org/Graphics/SVG/1.1/DTD/svg11.dtd">
<svg width="100%" height="100%" viewBox="0 0 481 481" version="1.1" xmlns="http://www.w3.org/2000/svg" xmlns:xlink="http://www.w3.org/1999/xlink" xml:space="preserve" xmlns:serif="http://www.serif.com/" style="fill-rule:evenodd;clip-rule:evenodd;stroke-linejoin:round;stroke-miterlimit:2;">
    <g transform="matrix(1,0,0,1,-25944.9,-7771.29)">
        <g transform="matrix(4.09588,-6.61826,-6.61826,-4.09588,26195.9,7910.82)">
            <path d="M-11.721,-36.456C-28.746,-36.455 -42.567,-22.633 -42.566,-5.609C-42.566,11.415 -28.743,25.235 -11.719,25.235C5.306,25.234 19.127,11.412 19.126,-5.612C19.126,-22.636 5.303,-36.457 -11.721,-36.456ZM-11.721,-34.456C4.199,-34.457 17.126,-21.532 17.126,-5.612C17.127,10.308 4.202,23.234 -11.719,23.235C-27.64,23.235 -40.566,10.311 -40.566,-5.609C-40.567,-21.53 -27.642,-34.455 -11.721,-34.456ZM-16.609,-2.103C-17.486,-2.719 -18.553,-3.08 -19.705,-3.08C-22.682,-3.08 -25.098,-0.663 -25.098,2.313C-25.098,5.289 -22.681,7.705 -19.704,7.705C-16.727,7.705 -14.311,5.288 -14.311,2.312C-14.311,1.209 -14.643,0.183 -15.212,-0.671L-11.715,-4.196L-8.202,-0.71C-8.787,0.152 -9.129,1.192 -9.129,2.312C-9.129,5.288 -6.712,7.705 -3.735,7.705C-0.758,7.705 1.658,5.288 1.658,2.312C1.658,-0.665 -0.758,-3.081 -3.735,-3.081C-4.87,-3.081 -5.924,-2.73 -6.793,-2.13L-10.306,-5.616L-6.831,-9.118C-5.954,-8.503 -4.886,-8.141 -3.735,-8.141C-0.758,-8.141 1.658,-10.558 1.658,-13.535C1.658,-16.511 -0.759,-18.928 -3.736,-18.927C-6.713,-18.927 -9.129,-16.51 -9.129,-13.534C-9.129,-12.431 -8.797,-11.405 -8.228,-10.55L-11.726,-7.024L-15.24,-10.51C-14.654,-11.373 -14.312,-12.413 -14.312,-13.533C-14.312,-16.51 -16.729,-18.926 -19.706,-18.926C-22.682,-18.926 -25.099,-16.51 -25.099,-13.533C-25.099,-10.557 -22.682,-8.14 -19.706,-8.14C-18.571,-8.14 -17.518,-8.492 -16.649,-9.091L-13.135,-5.605L-16.609,-2.103ZM-18.109,-10.539C-18.585,-10.285 -19.128,-10.14 -19.706,-10.14C-21.579,-10.14 -23.099,-11.661 -23.099,-13.533C-23.099,-15.406 -21.578,-16.926 -19.706,-16.926C-17.833,-16.926 -16.312,-15.406 -16.312,-13.533C-16.312,-12.965 -16.452,-12.429 -16.699,-11.959L-19.001,-14.242C-19.393,-14.631 -20.027,-14.629 -20.416,-14.237C-20.804,-13.845 -20.802,-13.211 -20.41,-12.823L-18.109,-10.539ZM-5.333,-0.682C-4.857,-0.937 -4.313,-1.081 -3.735,-1.081C-1.862,-1.081 -0.342,0.439 -0.342,2.312C-0.342,4.185 -1.862,5.705 -3.735,5.705C-5.608,5.705 -7.129,4.185 -7.129,2.312C-7.129,1.744 -6.989,1.209 -6.742,0.738L-4.44,3.022C-4.048,3.411 -3.414,3.408 -3.026,3.016C-2.637,2.625 -2.64,1.991 -3.031,1.602L-5.333,-0.682ZM-6.771,-12.018C-7,-12.474 -7.129,-12.989 -7.129,-13.534C-7.129,-15.407 -5.609,-16.927 -3.736,-16.927C-1.863,-16.928 -0.342,-15.407 -0.342,-13.535C-0.342,-11.662 -1.862,-10.141 -3.735,-10.141C-4.335,-10.141 -4.9,-10.297 -5.389,-10.571L-3.088,-12.89C-2.699,-13.282 -2.702,-13.916 -3.094,-14.304C-3.485,-14.693 -4.119,-14.691 -4.508,-14.299L-6.771,-12.018ZM-16.668,0.796C-16.44,1.253 -16.311,1.767 -16.311,2.312C-16.311,4.185 -17.831,5.705 -19.704,5.705C-21.577,5.705 -23.098,4.185 -23.098,2.313C-23.098,0.44 -21.578,-1.08 -19.705,-1.08C-19.104,-1.08 -18.54,-0.924 -18.051,-0.65L-20.353,1.671C-20.742,2.062 -20.739,2.696 -20.348,3.085C-19.956,3.473 -19.322,3.471 -18.934,3.079L-16.668,0.796Z"/>
        </g>
    </g>
</svg>
