<?xml version="1.0" encoding="UTF-8" standalone="no"?>
<!DOCTYPE svg PUBLIC "-//W3C//DTD SVG 1.1//EN" "http://www.w3.org/Graphics/SVG/1.1/DTD/svg11.dtd">
<svg width="100%" height="100%" viewBox="0 0 741 741" version="1.1" xmlns="http://www.w3.org/2000/svg" xmlns:xlink="http://www.w3.org/1999/xlink" xml:space="preserve" xmlns:serif="http://www.serif.com/" style="fill-rule:evenodd;clip-rule:evenodd;stroke-linejoin:round;stroke-miterlimit:2;">
    <g transform="matrix(1,0,0,1,-26133,-8267.46)">
        <g transform="matrix(2.04559,-2.04559,2.04559,2.04559,26266.8,8721.99)">
            <path d="M-3.006,63.157C-11.117,74.505 -24.401,81.908 -39.4,81.908C-64.073,81.908 -84.105,61.877 -84.105,37.203C-84.105,18.828 -72.994,3.027 -57.13,-3.842C-55.908,-4.584 -49.544,-8.38 -39.167,-13.433C-39.032,-20.119 -33.569,-25.499 -26.85,-25.499L-16.236,-25.499C-16.95,-25.97 -17.333,-26.834 -17.169,-27.703C-16.977,-28.724 -16.085,-29.463 -15.046,-29.463L-0.374,-29.463C18.751,-36.061 41.661,-42.114 66.719,-45.018C164.35,-56.333 208.935,-9.893 214.492,-3.592C230.053,3.402 240.888,19.037 240.888,37.203C240.888,61.893 220.873,81.908 196.183,81.908C185.323,81.908 168.75,75.497 154.04,66.862L35.338,64.061C32.562,70.019 25.552,72.772 19.431,70.218L2.845,63.295L-3.006,63.157ZM125.551,17.247C145.756,2.535 161.747,-5.214 173.874,-9.138C173.321,-9.398 172.68,-9.684 171.957,-9.981C161.631,-14.214 156.311,-13.328 155.78,-13.223C154.89,-12.927 147.973,-10.623 137.341,-7.1C125.41,-3.146 118.967,-10.631 117.94,-11.957L95.843,-32.6C95.709,-32.725 95.595,-32.862 95.5,-33.009C70.952,-32.785 47.182,-27.992 12.486,-18.013C40.77,-5.941 96.408,16.258 125.071,17.178C125.237,17.183 125.397,17.207 125.551,17.247ZM179.46,-10.757C179.874,-10.862 180.284,-10.963 180.688,-11.059C170.075,-17.217 140.842,-31.895 101.79,-32.957L121.029,-14.984C121.136,-14.885 121.232,-14.775 121.316,-14.656C121.316,-14.656 126.234,-7.971 135.982,-11.201C147.384,-14.98 154.511,-17.355 154.511,-17.355C154.557,-17.37 154.603,-17.384 154.65,-17.396C154.65,-17.396 160.911,-19.179 173.596,-13.978C176.8,-12.665 178.358,-11.76 179.051,-11.193L179.46,-10.757ZM157.284,60.514C170.85,68.615 186.129,74.707 196.183,74.707C216.895,74.707 233.686,57.916 233.686,37.203C233.686,21.743 224.332,8.469 210.976,2.73C210.945,2.718 210.914,2.705 210.883,2.692C206.368,0.766 201.401,-0.3 196.183,-0.3C180.823,-0.3 153.319,12.801 138.16,23.48C134.439,26.102 131.48,28.555 129.725,30.644C129.216,31.25 128.7,32.177 128.604,32.35C128.639,33.777 129.217,35.309 130.119,36.94C130.794,38.16 131.649,39.411 132.658,40.682C132.962,41.06 133.279,41.441 133.608,41.825C134.356,42.7 135.17,43.582 136.041,44.467C136.821,45.258 137.649,46.053 138.519,46.849C139.971,48.18 141.537,49.513 143.196,50.835C147.285,54.085 151.942,57.264 156.832,60.193C156.992,60.29 157.143,60.397 157.284,60.514ZM230.716,37.203C230.716,55.05 216.227,69.539 198.381,69.539C180.534,69.539 166.045,55.05 166.045,37.203C166.045,19.357 180.534,4.868 198.381,4.868C216.227,4.868 230.716,19.357 230.716,37.203ZM226.395,37.203C226.395,21.742 213.842,9.189 198.381,9.189C182.919,9.189 170.366,21.742 170.366,37.203C170.366,52.665 182.919,65.218 198.381,65.218C213.842,65.218 226.395,52.665 226.395,37.203ZM218.034,37.203C218.034,48.051 209.228,56.857 198.381,56.857C187.534,56.857 178.728,48.051 178.728,37.203C178.728,26.356 187.534,17.55 198.381,17.55C209.228,17.55 218.034,26.356 218.034,37.203ZM210.833,37.203C210.833,30.331 205.253,24.751 198.381,24.751C191.509,24.751 185.929,30.331 185.929,37.203C185.929,44.076 191.509,49.656 198.381,49.656C205.253,49.656 210.833,44.076 210.833,37.203ZM14.735,63.575L21.095,66.23C24.425,67.62 28.161,66.59 30.344,63.944L14.735,63.575ZM199.937,-7.346C199.558,-7.653 199.167,-7.964 198.765,-8.28C190.203,-9.464 165.158,-8.47 119.459,27.263L119.418,27.294L99.036,42.463C98.349,43.017 91.057,48.406 67.133,48.406L47.96,48.406C47.835,48.406 47.711,48.395 47.589,48.374C47.589,48.374 39.28,47.126 32.063,56.781L142.561,59.387C141.19,58.386 139.862,57.374 138.584,56.355C136.837,54.966 135.186,53.563 133.654,52.16C133.162,51.709 132.682,51.256 132.215,50.804C130.717,49.362 129.349,47.925 128.136,46.508C123.776,41.413 121.401,36.414 121.401,32.214C121.401,30.86 121.912,29.187 123.164,27.376C125.031,24.675 128.864,21.22 134.013,17.593C150.22,6.175 179.76,-7.502 196.183,-7.502C197.447,-7.502 198.7,-7.449 199.937,-7.346ZM-4.045,-20.526C-16.549,-15.953 -27.148,-11.258 -35.292,-7.316C-31.16,-6.939 -27.19,-6 -23.46,-4.577C-22.014,-9.586 -18.505,-11.376 -18.505,-11.376C-18.443,-11.41 -18.38,-11.441 -18.315,-11.468L-2.16,-18.338L-2.16,-19.687C-2.865,-19.999 -3.495,-20.28 -4.045,-20.526ZM192.597,-12.803C171.977,-26.927 131.711,-45.301 67.548,-37.864C43.002,-35.019 20.567,-29.085 1.857,-22.624C3.159,-22.05 4.628,-21.405 6.247,-20.701C45.106,-32.082 70.595,-37.339 97.318,-37.339C147.06,-37.339 182.359,-15.301 186.979,-12.27C189.047,-12.569 190.919,-12.733 192.597,-12.803ZM-22.055,-21.178L-26.85,-21.178C-30.393,-21.178 -33.398,-18.874 -34.448,-15.684C-30.711,-17.43 -26.566,-19.282 -22.055,-21.178ZM-40.209,-0.291C-60.535,0.14 -76.903,16.775 -76.903,37.203C-76.903,57.902 -60.098,74.707 -39.4,74.707C-26.258,74.707 -14.686,67.932 -7.988,57.688C-7.96,57.64 -7.931,57.593 -7.901,57.547C-4.108,51.685 -1.897,44.705 -1.897,37.203C-1.897,16.505 -18.701,-0.3 -39.399,-0.3L-39.4,-0.3C-39.67,-0.3 -39.94,-0.297 -40.209,-0.291ZM-7.065,37.203C-7.065,55.05 -21.554,69.539 -39.4,69.539C-57.246,69.539 -71.735,55.05 -71.735,37.203C-71.735,19.357 -57.246,4.868 -39.4,4.868C-21.554,4.868 -7.065,19.357 -7.065,37.203ZM-11.386,37.203C-11.386,21.742 -23.939,9.189 -39.4,9.189C-54.861,9.189 -67.414,21.742 -67.414,37.203C-67.414,52.665 -54.861,65.218 -39.4,65.218C-23.939,65.218 -11.386,52.665 -11.386,37.203ZM-19.746,37.203C-19.746,48.051 -28.552,56.857 -39.399,56.857C-50.246,56.857 -59.052,48.051 -59.052,37.203C-59.052,26.356 -50.246,17.55 -39.399,17.55C-28.552,17.55 -19.746,26.356 -19.746,37.203ZM-26.947,37.203C-26.947,30.331 -32.527,24.751 -39.399,24.751C-46.272,24.751 -51.851,30.331 -51.851,37.203C-51.851,44.076 -46.272,49.656 -39.399,49.656C-32.527,49.656 -26.947,44.076 -26.947,37.203ZM-1.971,61.644C-1.886,61.529 -1.807,61.407 -1.736,61.281C-1.814,61.403 -1.892,61.524 -1.971,61.644ZM26.912,56.659C35.469,42.886 46.51,43.859 48.127,44.085L67.133,44.085C90.083,44.085 96.301,39.118 96.301,39.118C96.335,39.089 96.37,39.061 96.406,39.034L116.818,23.843C117.978,22.937 119.125,22.052 120.26,21.188C87.21,18.007 27.478,-6.776 3.571,-17.171C5.124,-16.094 7.166,-14.547 8.975,-12.751C11.62,-10.124 13.661,-6.937 13.661,-3.901L13.661,56.347L26.912,56.659ZM19.983,3.484L40.821,24.078L40.83,24.087C43.517,26.773 43.506,31.164 40.779,33.89L40.748,33.921L19.677,54.153C19.051,54.754 18.126,54.922 17.328,54.58C16.53,54.237 16.015,53.45 16.02,52.582L16.304,5.008C16.31,4.139 16.835,3.357 17.638,3.025C18.441,2.692 19.365,2.873 19.983,3.484ZM20.595,10.163L20.372,47.496L37.742,30.817C38.751,29.789 38.781,28.151 37.778,27.145L20.595,10.163ZM1.143,56.051L9.341,56.245L9.341,-3.901C9.341,-5.937 7.703,-7.924 5.93,-9.685C3.735,-11.865 1.154,-13.63 -0.182,-14.484L-16.487,-7.55C-16.821,-7.326 -18.684,-5.953 -19.436,-2.808C-4.767,4.525 5.305,19.687 5.305,37.203C5.305,43.936 3.813,50.323 1.143,56.051Z"/>
        </g>
    </g>
</svg>
