<?xml version="1.0" encoding="UTF-8" standalone="no"?>
<!DOCTYPE svg PUBLIC "-//W3C//DTD SVG 1.1//EN" "http://www.w3.org/Graphics/SVG/1.1/DTD/svg11.dtd">
<svg width="100%" height="100%" viewBox="0 0 294 499" version="1.1" xmlns="http://www.w3.org/2000/svg" xmlns:xlink="http://www.w3.org/1999/xlink" xml:space="preserve" xmlns:serif="http://www.serif.com/" style="fill-rule:evenodd;clip-rule:evenodd;stroke-linejoin:round;stroke-miterlimit:2;">
    <g transform="matrix(1,0,0,1,-26898.2,-7817.57)">
        <g transform="matrix(7.78316,0,0,7.78316,27105.8,8222.29)">
            <path d="M-16.522,-4.353C-17.209,-12.06 -21.05,-18.911 -22.955,-21.903C-23.311,-22.382 -23.643,-22.878 -23.953,-23.39L-24.029,-23.494L-24.002,-23.481C-24.026,-23.512 -24.049,-23.546 -24.069,-23.581C-25.72,-26.384 -26.682,-29.641 -26.682,-33.13C-26.682,-43.551 -18.234,-52 -7.812,-52C2.609,-52 11.058,-43.551 11.058,-33.13C11.058,-29.64 10.095,-26.384 8.443,-23.58L7.6,-23.098L7.6,-23.088L8.404,-23.494L8.329,-23.391C8.019,-22.879 7.687,-22.384 7.332,-21.906C5.429,-18.917 1.602,-12.092 0.901,-4.408C1.708,-4.02 2.278,-3.086 2.278,-1.997C2.278,-0.952 1.754,-0.051 1,0.363L1,2.645C1.754,3.06 2.278,3.961 2.278,5.005C2.278,6.05 1.754,6.951 1,7.365L1,9C1,10.656 -0.344,12 -2,12L-13.415,12C-15.073,12 -16.415,10.656 -16.415,9L-16.415,7.42C-17.205,7.02 -17.759,6.089 -17.759,5.005C-17.759,3.922 -17.205,2.991 -16.415,2.59L-16.415,0.418C-17.205,0.018 -17.759,-0.913 -17.759,-1.997C-17.759,-3.031 -17.254,-3.926 -16.522,-4.353ZM-14.415,7.608L-14.415,9C-14.415,9.552 -13.968,10 -13.415,10L-2,10C-1.448,10 -1,9.552 -1,9L-1,7.608L-14.415,7.608ZM-1.088,-4.599C-0.338,-12.698 3.674,-19.89 5.666,-23.013C5.679,-23.033 5.693,-23.054 5.708,-23.074C6.04,-23.518 6.349,-23.981 6.637,-24.458C6.651,-24.482 6.666,-24.504 6.682,-24.526L6.684,-24.529C6.695,-24.552 6.707,-24.574 6.72,-24.595C8.196,-27.101 9.058,-30.011 9.058,-33.13C9.058,-42.447 1.504,-50 -7.812,-50C-17.129,-50 -24.682,-42.447 -24.682,-33.13C-24.682,-30.011 -23.821,-27.101 -22.346,-24.595C-22.334,-24.575 -22.323,-24.554 -22.312,-24.534L-22.307,-24.526C-22.291,-24.504 -22.276,-24.482 -22.262,-24.458C-21.974,-23.98 -21.664,-23.517 -21.332,-23.072C-21.317,-23.052 -21.303,-23.032 -21.29,-23.012C-19.298,-19.889 -15.287,-12.698 -14.538,-4.599L-8.813,-4.599L-8.813,-15.9C-8.813,-17.786 -10.221,-19.567 -11.695,-21.148C-13.407,-22.984 -15.26,-24.559 -15.9,-25.639L-15.901,-25.639C-16.033,-25.862 -16.157,-26.065 -16.269,-26.241C-16.301,-26.291 -16.328,-26.343 -16.35,-26.397C-16.526,-26.823 -16.625,-27.286 -16.625,-27.774C-16.625,-29.764 -15.011,-31.378 -13.021,-31.378C-11.997,-31.378 -11.073,-30.951 -10.417,-30.265C-9.761,-30.951 -8.836,-31.378 -7.813,-31.378C-6.789,-31.378 -5.865,-30.951 -5.209,-30.265C-4.552,-30.951 -3.628,-31.378 -2.604,-31.378C-0.614,-31.378 0.999,-29.764 0.999,-27.774C0.999,-27.288 0.901,-26.823 0.727,-26.399C0.704,-26.344 0.677,-26.291 0.645,-26.241C0.532,-26.065 0.408,-25.862 0.275,-25.638L0.275,-25.637C-0.365,-24.558 -2.219,-22.983 -3.931,-21.146C-5.404,-19.566 -6.813,-17.786 -6.813,-15.9L-6.813,-4.599L-1.088,-4.599ZM-1,2.403L-1,0.606L-14.415,0.606L-14.415,2.403L-1,2.403ZM-11.416,-27.774C-11.416,-28.66 -12.135,-29.378 -13.021,-29.378C-13.906,-29.378 -14.624,-28.66 -14.624,-27.774C-14.624,-27.583 -14.59,-27.401 -14.529,-27.231C-14.433,-27.078 -14.33,-26.91 -14.221,-26.727C-13.927,-26.39 -13.502,-26.17 -13.021,-26.17C-12.135,-26.17 -11.417,-26.888 -11.416,-27.774ZM-3.591,-24.306C-4.216,-24.484 -4.771,-24.825 -5.209,-25.282C-5.865,-24.597 -6.789,-24.17 -7.813,-24.17C-8.836,-24.17 -9.761,-24.597 -10.417,-25.282C-10.854,-24.826 -11.409,-24.484 -12.034,-24.307C-11.131,-23.431 -10.107,-22.44 -9.228,-21.37C-8.689,-20.713 -8.204,-20.028 -7.812,-19.324C-7.421,-20.028 -6.936,-20.712 -6.397,-21.369C-5.518,-22.439 -4.494,-23.43 -3.591,-24.306ZM-1.405,-26.726C-1.295,-26.91 -1.192,-27.079 -1.095,-27.232C-1.035,-27.401 -1.001,-27.584 -1.001,-27.774C-1.001,-28.66 -1.719,-29.378 -2.604,-29.378C-3.49,-29.378 -4.208,-28.66 -4.208,-27.774C-4.208,-26.888 -3.49,-26.17 -2.604,-26.17C-2.123,-26.17 -1.698,-26.39 -1.405,-26.726ZM-6.208,-27.774C-6.208,-28.66 -6.927,-29.378 -7.813,-29.378C-8.698,-29.378 -9.417,-28.66 -9.417,-27.774C-9.416,-26.888 -8.698,-26.17 -7.813,-26.17C-6.927,-26.17 -6.208,-26.888 -6.208,-27.774Z"/>
        </g>
    </g>
</svg>
