<?xml version="1.0" encoding="UTF-8" standalone="no"?>
<!DOCTYPE svg PUBLIC "-//W3C//DTD SVG 1.1//EN" "http://www.w3.org/Graphics/SVG/1.1/DTD/svg11.dtd">
<svg width="100%" height="100%" viewBox="0 0 620 396" version="1.1" xmlns="http://www.w3.org/2000/svg" xmlns:xlink="http://www.w3.org/1999/xlink" xml:space="preserve" xmlns:serif="http://www.serif.com/" style="fill-rule:evenodd;clip-rule:evenodd;stroke-linejoin:round;stroke-miterlimit:2;">
    <g transform="matrix(1,0,0,1,-14244.1,-8255.35)">
        <g transform="matrix(4.16667,0,0,4.16667,14554,8501.75)">
            <path d="M-48.56,-52.841L68.275,-52.841C71.64,-52.841 74.378,-50.103 74.378,-46.739L74.378,29.675C74.378,33.041 71.64,35.778 68.275,35.778L-68.275,35.778C-71.64,35.778 -74.378,33.041 -74.378,29.675L-74.378,-46.739C-74.378,-50.103 -71.64,-52.841 -68.275,-52.841L-65.104,-52.841C-64.1,-56.466 -60.772,-59.134 -56.832,-59.134C-52.892,-59.134 -49.564,-56.466 -48.56,-52.841ZM-65.414,-48.264L-68.275,-48.264C-69.116,-48.264 -69.801,-47.579 -69.801,-46.739L-69.801,29.675C-69.801,30.516 -69.116,31.201 -68.275,31.201L68.275,31.201C69.117,31.201 69.801,30.516 69.801,29.675L69.801,-46.739C69.801,-47.579 69.117,-48.264 68.275,-48.264L-48.25,-48.264L-65.414,-48.264ZM-53.547,-52.841C-54.272,-53.878 -55.474,-54.557 -56.832,-54.557C-58.191,-54.557 -59.393,-53.878 -60.118,-52.841L-53.547,-52.841ZM63.745,-28.862L40.432,-28.862C38.301,-28.862 36.568,-30.594 36.568,-32.725L36.568,-42.174C36.568,-44.304 38.301,-46.038 40.432,-46.038L63.745,-46.038C65.876,-46.038 67.608,-44.304 67.608,-42.174L67.608,-32.725C67.608,-30.594 65.876,-28.862 63.745,-28.862ZM41.145,-33.439L63.031,-33.439L63.031,-41.46L41.145,-41.46L41.145,-33.439ZM0,18.69C-15.009,18.69 -27.221,6.478 -27.221,-8.531C-27.221,-23.541 -15.009,-35.752 0,-35.752C15.01,-35.752 27.222,-23.541 27.222,-8.531C27.222,6.478 15.01,18.69 0,18.69ZM0,-31.176C-12.485,-31.176 -22.644,-21.017 -22.644,-8.531C-22.644,3.955 -12.485,14.113 0,14.113C12.486,14.113 22.645,3.955 22.645,-8.531C22.645,-21.017 12.486,-31.176 0,-31.176ZM0,4.577C-7.228,4.577 -13.108,-1.304 -13.108,-8.532C-13.108,-15.759 -7.228,-21.64 0,-21.64C7.228,-21.64 13.109,-15.759 13.109,-8.532C13.109,-1.304 7.228,4.577 0,4.577ZM0,-17.063C-4.704,-17.063 -8.531,-13.236 -8.531,-8.532C-8.531,-3.827 -4.704,-0.001 0,-0.001C4.705,-0.001 8.532,-3.827 8.532,-8.532C8.532,-13.236 4.705,-17.063 0,-17.063Z"/>
        </g>
    </g>
</svg>
