<?xml version="1.0" encoding="UTF-8" standalone="no"?>
<!DOCTYPE svg PUBLIC "-//W3C//DTD SVG 1.1//EN" "http://www.w3.org/Graphics/SVG/1.1/DTD/svg11.dtd">
<svg width="100%" height="100%" viewBox="0 0 599 537" version="1.1" xmlns="http://www.w3.org/2000/svg" xmlns:xlink="http://www.w3.org/1999/xlink" xml:space="preserve" xmlns:serif="http://www.serif.com/" style="fill-rule:evenodd;clip-rule:evenodd;stroke-linejoin:round;stroke-miterlimit:2;">
    <g transform="matrix(1,0,0,1,-13527.6,-8114.31)">
        <g transform="matrix(4.16667,0,0,4.16667,13754.4,8523.53)">
            <path d="M-47.839,4.577L-51.001,4.577C-52.887,4.577 -54.421,3.074 -54.421,1.228L-54.421,-9.055C-54.421,-10.902 -52.887,-12.405 -51.001,-12.405L-47.839,-12.405L-47.839,-83.985C-47.839,-84.003 -47.839,-84.02 -47.839,-84.038L-47.839,-92.941C-47.839,-95.849 -45.384,-98.215 -42.365,-98.215L83.774,-98.215C86.792,-98.215 89.248,-95.849 89.248,-92.941L89.248,-84.042C89.249,-84.023 89.249,-84.004 89.249,-83.985L89.249,18.707C89.249,18.726 89.249,18.745 89.248,18.764L89.248,25.275C89.248,28.183 86.792,30.549 83.774,30.549L-42.365,30.549C-45.384,30.549 -47.839,28.183 -47.839,25.275L-47.839,18.76C-47.839,18.743 -47.839,18.725 -47.839,18.707L-47.839,4.577ZM-47.839,-7.828L-49.844,-7.828L-49.844,0L-47.839,0L-47.839,-7.828ZM-43.261,-65.646L-43.261,-58.739C-42.97,-58.785 -42.67,-58.809 -42.365,-58.809L83.774,-58.809C84.08,-58.809 84.379,-58.785 84.671,-58.739L84.671,-65.646C84.379,-65.6 84.08,-65.576 83.774,-65.576L-42.365,-65.576C-42.67,-65.576 -42.97,-65.6 -43.261,-65.646ZM84.671,-84.022L84.671,-92.941C84.671,-93.319 84.26,-93.638 83.774,-93.638L-42.365,-93.638C-42.851,-93.638 -43.262,-93.319 -43.262,-92.941L-43.262,-84.028C-43.261,-84.014 -43.261,-83.999 -43.261,-83.985L-43.261,-70.83C-43.247,-70.461 -42.842,-70.154 -42.365,-70.154L83.774,-70.154C84.253,-70.154 84.658,-70.463 84.671,-70.833L84.671,-83.985C84.671,-83.997 84.671,-84.01 84.671,-84.022ZM-43.262,18.75L-43.262,25.275C-43.262,25.653 -42.851,25.972 -42.365,25.972L83.774,25.972C84.26,25.972 84.671,25.653 84.671,25.275L84.671,18.745C84.671,18.732 84.671,18.72 84.671,18.707L84.671,-53.553C84.658,-53.923 84.253,-54.232 83.774,-54.232L-42.365,-54.232C-42.842,-54.232 -43.247,-53.924 -43.261,-53.555L-43.261,-9.055L-43.261,1.228L-43.261,18.707C-43.261,18.722 -43.261,18.736 -43.262,18.75ZM75.493,16.817L-34.083,16.817C-35.346,16.817 -36.371,15.793 -36.371,14.529C-36.371,13.264 -35.346,12.24 -34.083,12.24L75.493,12.24C76.757,12.24 77.782,13.264 77.782,14.529C77.782,15.793 76.757,16.817 75.493,16.817ZM41.41,4.577L0,4.577C-3.018,4.577 -5.474,2.211 -5.474,-0.697L-5.474,-39.505C-5.474,-42.413 -3.018,-44.779 0,-44.779L41.41,-44.779C44.428,-44.779 46.883,-42.413 46.883,-39.505L46.883,-0.697C46.883,2.211 44.428,4.577 41.41,4.577ZM0,-40.202C-0.486,-40.202 -0.896,-39.882 -0.896,-39.505L-0.896,-0.697C-0.896,-0.319 -0.486,0 0,0L41.41,0C41.896,0 42.306,-0.319 42.306,-0.697L42.306,-39.505C42.306,-39.882 41.896,-40.202 41.41,-40.202L0,-40.202ZM20.705,-2.886C10.662,-2.886 2.49,-10.608 2.49,-20.1C2.49,-29.592 10.662,-37.315 20.705,-37.315C30.749,-37.315 38.921,-29.592 38.921,-20.1C38.921,-10.608 30.749,-2.886 20.705,-2.886ZM20.705,-32.738C13.185,-32.738 7.067,-27.069 7.067,-20.1C7.067,-13.133 13.185,-7.464 20.705,-7.464C28.226,-7.464 34.344,-13.133 34.344,-20.1C34.344,-27.069 28.226,-32.738 20.705,-32.738ZM78.819,-71.89L47.123,-71.89C45.137,-71.89 43.52,-73.469 43.52,-75.41L43.52,-88.382C43.52,-90.323 45.137,-91.902 47.123,-91.902L78.819,-91.902C80.806,-91.902 82.423,-90.323 82.423,-88.382L82.423,-75.41C82.423,-73.469 80.806,-71.89 78.819,-71.89ZM48.097,-76.467L77.846,-76.467L77.846,-87.325L48.097,-87.325L48.097,-76.467Z"/>
        </g>
    </g>
</svg>
