<?xml version="1.0" encoding="UTF-8" standalone="no"?>
<!DOCTYPE svg PUBLIC "-//W3C//DTD SVG 1.1//EN" "http://www.w3.org/Graphics/SVG/1.1/DTD/svg11.dtd">
<svg width="100%" height="100%" viewBox="0 0 325 592" version="1.1" xmlns="http://www.w3.org/2000/svg" xmlns:xlink="http://www.w3.org/1999/xlink" xml:space="preserve" xmlns:serif="http://www.serif.com/" style="fill-rule:evenodd;clip-rule:evenodd;stroke-linejoin:round;stroke-miterlimit:2;">
    <g transform="matrix(1,0,0,1,-15731,-8059.61)">
        <g transform="matrix(4.16667,0,0,4.16667,15756.4,8631.75)">
            <path d="M65.732,4.577L0,4.577C-3.365,4.577 -6.104,1.84 -6.104,-1.525L-6.104,-131.21C-6.104,-134.575 -3.365,-137.313 0,-137.313L65.732,-137.313C69.097,-137.313 71.835,-134.575 71.835,-131.21L71.835,-1.525C71.835,1.84 69.097,4.577 65.732,4.577ZM0,-132.736C-0.842,-132.736 -1.526,-132.051 -1.526,-131.21L-1.526,-1.525C-1.526,-0.684 -0.842,0 0,0L65.732,0C66.574,0 67.258,-0.684 67.258,-1.525L67.258,-131.21C67.258,-132.051 66.574,-132.736 65.732,-132.736L0,-132.736ZM10.234,-111.927C5.503,-111.927 1.652,-115.777 1.652,-120.509C1.652,-125.242 5.503,-129.091 10.234,-129.091C14.966,-129.091 18.816,-125.242 18.816,-120.509C18.816,-115.777 14.966,-111.927 10.234,-111.927ZM10.234,-124.514C8.026,-124.514 6.229,-122.717 6.229,-120.509C6.229,-118.301 8.026,-116.504 10.234,-116.504C12.442,-116.504 14.239,-118.301 14.239,-120.509C14.239,-122.717 12.442,-124.514 10.234,-124.514Z"/>
        </g>
    </g>
</svg>
