<?xml version="1.0" encoding="UTF-8" standalone="no"?>
<!DOCTYPE svg PUBLIC "-//W3C//DTD SVG 1.1//EN" "http://www.w3.org/Graphics/SVG/1.1/DTD/svg11.dtd">
<svg width="100%" height="100%" viewBox="0 0 623 673" version="1.1" xmlns="http://www.w3.org/2000/svg" xmlns:xlink="http://www.w3.org/1999/xlink" xml:space="preserve" xmlns:serif="http://www.serif.com/" style="fill-rule:evenodd;clip-rule:evenodd;stroke-linejoin:round;stroke-miterlimit:2;">
    <g transform="matrix(1,0,0,1,-14975.1,-7978.54)">
        <g transform="matrix(4.16667,0,0,4.16667,15366,8501.75)">
            <path d="M15.482,-52.841L49.585,-52.841C52.951,-52.841 55.688,-50.102 55.688,-46.738L55.688,29.675C55.688,33.04 52.951,35.777 49.585,35.777L-87.728,35.777C-91.093,35.777 -93.831,33.04 -93.831,29.675L-93.831,-54.304C-93.831,-57.668 -91.093,-60.406 -87.728,-60.406L-84.176,-60.406C-83.172,-64.03 -79.843,-66.699 -75.904,-66.699C-71.964,-66.699 -68.636,-64.03 -67.632,-60.406L-64.081,-60.406C-60.715,-60.406 -57.977,-57.668 -57.977,-54.304L-57.977,-52.841L-15.54,-52.841L-15.54,-56.21L-26.049,-56.21C-28.502,-56.21 -30.497,-58.207 -30.497,-60.659L-30.497,-121.122C-30.497,-123.574 -28.502,-125.57 -26.049,-125.57L25.991,-125.57C28.444,-125.57 30.439,-123.574 30.439,-121.122L30.439,-60.659C30.439,-58.207 28.444,-56.21 25.991,-56.21L15.482,-56.21L15.482,-52.841ZM-84.486,-55.829L-87.728,-55.829C-88.57,-55.829 -89.253,-55.144 -89.253,-54.304L-89.253,29.61C-89.253,30.516 -88.57,31.2 -87.728,31.2L-18.728,31.2C-33.609,24.158 -43.927,8.995 -43.927,-8.531C-43.927,-26.058 -33.609,-41.221 -18.728,-48.264L-62.554,-48.264L-62.554,-54.304C-62.554,-55.144 -63.239,-55.829 -64.081,-55.829L-67.322,-55.829L-84.486,-55.829ZM18.728,31.2L49.585,31.2C50.426,31.2 51.111,30.516 51.111,29.675L51.111,-46.738C51.111,-47.579 50.426,-48.264 49.585,-48.264L18.729,-48.264C33.61,-41.221 43.928,-26.058 43.928,-8.531C43.928,8.995 33.61,24.158 18.728,31.2ZM-72.619,-60.406C-73.343,-61.443 -74.545,-62.122 -75.904,-62.122C-77.262,-62.122 -78.464,-61.443 -79.189,-60.406L-72.619,-60.406ZM-10.963,-56.21L-10.963,-52.905L10.905,-52.905L10.905,-56.21L-10.963,-56.21ZM-25.92,-60.788L25.862,-60.788L25.862,-120.993L-25.92,-120.993L-25.92,-60.788ZM18.948,-89.173L-19.006,-89.173C-21.136,-89.173 -22.869,-90.907 -22.869,-93.037L-22.869,-113.508C-22.869,-115.638 -21.136,-117.372 -19.006,-117.372L18.948,-117.372C21.078,-117.372 22.811,-115.638 22.811,-113.508L22.811,-93.037C22.811,-90.907 21.078,-89.173 18.948,-89.173ZM-18.292,-93.75L18.234,-93.75L18.234,-112.794L-18.292,-112.794L-18.292,-93.75ZM0,-47.881C-21.698,-47.881 -39.35,-30.23 -39.35,-8.531C-39.35,13.167 -21.698,30.818 0,30.818C21.698,30.818 39.351,13.167 39.351,-8.531C39.351,-30.23 21.698,-47.881 0,-47.881ZM0,18.69C-15.01,18.69 -27.221,6.478 -27.221,-8.531C-27.221,-23.541 -15.01,-35.752 0,-35.752C15.01,-35.752 27.222,-23.541 27.222,-8.531C27.222,6.478 15.01,18.69 0,18.69ZM0,-31.176C-12.485,-31.176 -22.644,-21.017 -22.644,-8.531C-22.644,3.955 -12.485,14.113 0,14.113C12.486,14.113 22.645,3.955 22.645,-8.531C22.645,-21.017 12.486,-31.176 0,-31.176ZM0,4.577C-7.228,4.577 -13.108,-1.304 -13.108,-8.532C-13.108,-15.759 -7.228,-21.64 0,-21.64C7.228,-21.64 13.108,-15.759 13.108,-8.532C13.108,-1.304 7.228,4.577 0,4.577ZM0,-17.063C-4.704,-17.063 -8.531,-13.236 -8.531,-8.532C-8.531,-3.827 -4.704,-0.001 0,-0.001C4.705,-0.001 8.531,-3.827 8.531,-8.532C8.531,-13.236 4.705,-17.063 0,-17.063Z"/>
        </g>
    </g>
</svg>
