<svg data-name="jm-logo" id="jm-logo" xmlns="http://www.w3.org/2000/svg" xml:space="preserve" style="fill-rule:evenodd;clip-rule:evenodd;stroke-linecap:round;stroke-miterlimit:10" viewBox="400 950 4100 800"><defs><linearGradient id="jm-gradient" y1="1195.5" x2="4834" y2="1195.5" gradientUnits="userSpaceOnUse"><stop offset="0" stop-color="rgb(139, 92, 246)"/><stop offset="0.25" stop-color="rgb(236, 72, 153)"/></linearGradient></defs><title>jomurgel Logo</title><g><path class="sig-line" d="M0-135.77C15.592-57.348 27.607-5.95-24.03 44.455c-40.581 39.612-150.332 64.111-162.202 10.013-13.111-59.75 203.214-142.609 371.424-170.644q168.21-28.035 164.205 0c-6.675 21.36-28.449 35.243-7.089 57.939 32.04 34.042 107.681 40.289 111.164 111.695 1.335 27.367-39.995 46.636-50.007 22.606s32.04-46.057 178.222-152.19 148.185-148.185 126.158-158.197-104.13 48.06-104.13 118.147q0 70.088 86.107 122.153" style="fill:none;fill-rule:nonzero;stroke-width:25px" transform="translate(1301.85 1504.8)scale(4.16667)"/><circle class="sig-dot" cx="4310.49" cy="1612.7" r="58" style="stroke-width:0"/></g></svg>